<?xml version="1.0" encoding="UTF-8"?>
<svg width="43px" height="33px" viewBox="0 0 43 33" version="1.1" xmlns="http://www.w3.org/2000/svg" xmlns:xlink="http://www.w3.org/1999/xlink">
    <!-- Generator: Sketch 56.3 (81716) - https://sketch.com -->
    <title>Group 26 Copy</title>
    <desc>Created with Sketch.</desc>
    <defs>
        <polygon id="path-1" points="0 0.494152545 21.9757988 0.494152545 21.9757988 17.9391481 0 17.9391481"></polygon>
    </defs>
    <g id="Page-1" stroke="none" stroke-width="1" fill="none" fill-rule="evenodd">
        <g id="Artboard-Copy-3" transform="translate(-340.000000, -26.000000)">
            <g id="Group-26-Copy" transform="translate(340.000000, 26.000000)">
                <path d="M6.7796027,19.2466628 C6.58476362,19.2466628 6.39989074,19.1320516 6.31966288,18.941199 L1.45366897,7.32809216 C0.943898174,6.11072164 1.51944584,4.70499006 2.73681636,4.19521927 C3.95468519,3.68345524 5.35991846,4.26049784 5.87018756,5.47737005 L10.402314,16.2363741 C10.5089523,16.490512 10.3898563,16.7825215 10.1362166,16.8896581 C9.8820787,16.9943031 9.59056755,16.8772003 9.48392928,16.6235607 L4.95130453,5.86405835 C4.65331535,5.15247214 3.83259932,4.81710974 3.12200974,5.1141023 C2.77967099,5.25761548 2.51257701,5.52769932 2.37105707,5.87452285 C2.22903881,6.22084807 2.22953712,6.60056004 2.3730503,6.94289878 L7.23904422,18.5555073 C7.34518418,18.8096452 7.22608817,19.1016547 6.97195024,19.2077947 C6.90916322,19.2347034 6.84388465,19.2466628 6.7796027,19.2466628" id="Fill-1" fill="#02A6B8"></path>
                <path d="M9.94317147,16.9283767 C9.74833239,16.9283767 9.56395781,16.8142638 9.48372995,16.6234112 L3.88571913,3.320038 C3.63905585,2.73203259 3.63706261,2.08124016 3.88023773,1.48825166 C4.12291454,0.895263151 4.58036281,0.432831778 5.16836822,0.186666802 C6.38623705,-0.325097228 7.79147032,0.251945368 8.30173942,1.46931589 L13.5947847,14.1243882 C13.7009247,14.3785262 13.5813304,14.6700373 13.3271924,14.7766756 C13.0740511,14.8833139 12.7815433,14.7627229 12.6754034,14.5090833 L7.38235808,1.85401095 C7.0843689,1.14342137 6.26415118,0.808557268 5.55306329,1.10554983 C4.84297201,1.40353901 4.50661298,2.22375673 4.80460216,2.93434632 L10.4021147,16.2367229 C10.5087529,16.4903625 10.3896569,16.782372 10.1360173,16.8895086 C10.0732303,16.915919 10.0074534,16.9283767 9.94317147,16.9283767" id="Fill-3" fill="#02A6B8"></path>
                <path d="M13.1352435,14.8149458 C12.9404045,14.8149458 12.7550333,14.7003346 12.6753037,14.5089836 L8.44764449,4.39728384 C8.20197782,3.80977674 8.19998458,3.15898431 8.44266139,2.56649412 C8.6853382,1.9730073 9.14278648,1.51107424 9.73079189,1.26490926 C10.9481624,0.752646924 12.353894,1.32968952 12.8641631,2.54706004 L17.3195498,13.0384718 C17.4271847,13.2911148 17.3090853,13.5836226 17.055944,13.6917558 C16.8023044,13.7983941 16.5097966,13.6812913 16.40266,13.4276517 L11.9457784,2.93424665 C11.6472909,2.22166383 10.8260765,1.88679973 10.1159853,2.18329398 C9.77364652,2.32680717 9.50705085,2.59689101 9.36503259,2.94371454 C9.22301433,3.29053807 9.22351264,3.67025003 9.36702583,4.01209047 L13.5946851,14.1242886 C13.700825,14.3784265 13.5812307,14.670436 13.3270928,14.7765759 C13.2643057,14.8029863 13.1990272,14.8149458 13.1352435,14.8149458" id="Fill-5" fill="#02A6B8"></path>
                <g id="Group-9" transform="translate(0.000000, 14.459203)">
                    <mask id="mask-2" fill="white">
                        <use xlink:href="#path-1"></use>
                    </mask>
                    <g id="Clip-8"></g>
                    <path d="M15.7474825,17.9391481 C10.7992675,17.9391481 6.90298418,14.0921974 5.16438174,9.94227451 C3.51995984,6.63499324 2.1780119,4.59939824 0.68956092,3.1642664 C-0.419178093,2.09489385 0.0975690331,1.31653414 0.281943611,1.10325761 C1.04734726,0.219754564 3.27180162,0.232710615 4.9919666,1.57117039 C5.78627221,2.18957268 6.54818769,3.03420757 7.19499364,4.014881 C7.34697809,4.24460176 7.28369277,4.55355375 7.05397201,4.70503989 C6.82425125,4.85652603 6.51529926,4.79274239 6.36331481,4.56351995 C5.6208334,3.4378384 4.87486383,2.74269642 4.38004233,2.35750304 C3.04606734,1.31902569 1.389686,1.34693103 1.03538783,1.75554496 C0.910810412,1.89955646 1.14401934,2.21747803 1.38121474,2.44670047 C2.95686991,3.96604665 4.35911332,6.08386275 6.07030872,9.52768087 C7.96787194,14.052831 12.5657753,18.1718587 18.2086339,16.5957052 C19.4673642,16.2438986 20.9433574,14.8805233 20.979734,14.0368851 C20.9911951,13.7618181 21.2288888,13.5405686 21.4989727,13.560501 C21.7740396,13.5719621 21.9868178,13.8046728 21.9753567,14.0797397 C21.9145629,15.5029121 20.0449051,17.1169371 18.4767245,17.5549513 C17.5384074,17.8175605 16.6260024,17.9391481 15.7474825,17.9391481" id="Fill-7" fill="#02A6B8" mask="url(#mask-2)"></path>
                </g>
                <path d="M21.4777945,18.8919162 C21.278969,18.8919162 21.0916045,18.7728201 21.0138682,18.5764861 C19.600662,14.9971278 19.1691258,11.6170933 18.8541941,9.14896552 C18.6862638,7.83492292 18.4959095,6.3444787 18.2323037,6.14017174 C17.7145599,5.90148141 17.5207174,6.08884584 17.4374997,6.16757877 C16.3950359,7.17067613 16.8724166,11.9180723 17.2890034,12.9122001 C17.3956417,13.1663381 17.2760474,13.4583475 17.0224078,13.5644875 C16.7677715,13.6721224 16.4762604,13.5510331 16.3701204,13.2973935 C15.9375876,12.2653942 15.1766688,6.95989114 16.7463442,5.44901623 C17.0333706,5.17345098 17.6637323,4.77878972 18.6628432,5.24221771 C19.4038297,5.58704801 19.5598006,6.80740838 19.8428405,9.02289317 C20.1507959,11.4386984 20.5733625,14.7474746 21.9412225,18.2107268 C22.0418811,18.4663597 21.916307,18.7563759 21.6606742,18.8570345 C21.6003787,18.8809533 21.5385883,18.8919162 21.4777945,18.8919162" id="Fill-10" fill="#02A6B8"></path>
                <path d="M36.1752389,19.2466628 C36.1109569,19.2466628 36.0456784,19.2347034 35.9828913,19.2077947 C35.7287534,19.1016547 35.6096574,18.8096452 35.7157974,18.5555073 L40.5817913,6.94289878 C40.7253045,6.60056004 40.7258028,6.22084807 40.5837845,5.87452285 C40.4422646,5.52769932 40.1751706,5.25761548 39.8328318,5.1141023 C39.1222423,4.81661143 38.3020245,5.15197383 38.0040354,5.86306173 L33.4714106,16.6235607 C33.3647723,16.8772003 33.0727629,16.9943031 32.8186249,16.8896581 C32.5649853,16.7825215 32.4463876,16.490512 32.5530259,16.2363741 L37.0851523,5.47687174 C37.5949231,4.25999953 39.0006547,3.68445186 40.2180252,4.19521927 C41.4353957,4.70499006 42.0109434,6.11072164 41.5011726,7.32809216 L36.6351787,18.941199 C36.5549508,19.1320516 36.370078,19.2466628 36.1752389,19.2466628" id="Fill-12" fill="#02A6B8"></path>
                <path d="M33.0119193,16.9283767 C32.9476373,16.9283767 32.8818604,16.915919 32.8190734,16.8895086 C32.5654338,16.782372 32.4463378,16.4903625 32.5529761,16.2367229 L38.1504886,2.93384801 C38.4479794,2.22375673 38.1121187,1.40353901 37.4015291,1.10554983 C36.6909396,0.808557268 35.8702235,1.14342137 35.5727327,1.85450926 L30.2796874,14.5090833 C30.1735474,14.7632212 29.8820362,14.8833139 29.6274,14.7766756 C29.3737604,14.6700373 29.2536677,14.3785262 29.360306,14.1243882 L34.6533513,1.4698142 C35.1636204,0.251447059 36.569352,-0.325097228 37.7867225,0.186666802 C38.3742296,0.432831778 38.8321762,0.895263151 39.074853,1.48825166 C39.3175298,2.08124016 39.3155366,2.73203259 39.0693716,3.31953969 L33.4713608,16.6234112 C33.3911329,16.8142638 33.2067584,16.9283767 33.0119193,16.9283767" id="Fill-14" fill="#02A6B8"></path>
                <path d="M29.819598,14.8149458 C29.7558144,14.8149458 29.6905358,14.8029863 29.6277488,14.7765759 C29.3736109,14.670436 29.2540166,14.3784265 29.3601565,14.1242886 L33.5878158,4.01258878 C33.8853066,3.30199919 33.5494459,2.48128316 32.8388563,2.18329398 C32.4965176,2.04027911 32.1168056,2.0397808 31.7699821,2.18130074 C31.4231586,2.323319 31.1530747,2.58991467 31.0100598,2.93225341 L26.5521815,13.4276517 C26.445045,13.6812913 26.1530355,13.7983941 25.8988976,13.6917558 C25.6457563,13.5836226 25.5276569,13.2911148 25.6352918,13.0384718 L30.0916751,2.5450668 C30.3368435,1.95905463 30.7992748,1.50160636 31.3927617,1.25892955 C31.9857502,1.01675105 32.6360443,1.01824598 33.2240497,1.26490926 C34.4414202,1.77468005 35.0169679,3.17991332 34.5071971,4.39778215 L30.2795379,14.5089836 C30.1998083,14.7003346 30.0144371,14.8149458 29.819598,14.8149458" id="Fill-16" fill="#02A6B8"></path>
                <path d="M27.2083557,32.3983506 C26.3293375,32.3983506 25.4174308,32.2772613 24.478117,32.0141538 C22.9104348,31.5761396 21.0407769,29.9621146 20.9794849,28.5389422 C20.9680237,28.2638753 21.1813003,28.0311646 21.4563672,28.0197035 C21.7274477,27.9987745 21.9636465,28.2210206 21.9756059,28.4960876 C22.0114842,29.3397258 23.4874774,30.7031011 24.7462076,31.0549077 C30.3900629,32.6320578 34.987468,28.5120335 36.8715768,24.0162836 C38.5967249,20.5425669 39.99847,18.4247508 41.5731285,16.905903 C41.8108222,16.6766805 42.0440312,16.358759 41.9194538,16.2147475 C41.5656539,15.8066318 39.9092725,15.7787265 38.5747993,16.8167055 C38.0799778,17.2018989 37.3340082,17.8970409 36.5915268,19.0227224 C36.4400406,19.2519449 36.1310886,19.3157285 35.9008696,19.1642424 C35.6711488,19.0127563 35.6078635,18.7038043 35.7598479,18.4740835 C36.4066539,17.4934101 37.1685694,16.6487752 37.962875,16.0303729 C39.6840366,14.6919131 41.9074943,14.6794554 42.672898,15.5624601 C42.8572725,15.7757366 43.3740197,16.5540963 42.2647824,17.6234689 C40.777328,19.0581024 39.4353801,21.0936974 37.7770055,24.4308773 C36.0498642,28.5553864 32.1555741,32.3983506 27.2083557,32.3983506" id="Fill-18" fill="#02A6B8"></path>
                <path d="M21.4772962,18.8919162 C21.4165024,18.8919162 21.354712,18.8809533 21.2944166,18.8570345 C21.0387837,18.7563759 20.9132097,18.4663597 21.0138682,18.2107268 C22.38123,14.7474746 22.8037966,11.4386984 23.1122502,9.02289317 C23.3952901,6.80740838 23.5507627,5.58704801 24.2922475,5.24221771 C25.2898635,4.7777931 25.9212218,5.17345098 26.2087465,5.44901623 C27.7779237,6.95989114 27.0175031,12.2653942 26.5849703,13.2973935 C26.478332,13.5510331 26.1868209,13.6721224 25.932683,13.5644875 C25.6790433,13.4583475 25.559449,13.1663381 25.665589,12.9122001 C26.0826742,11.9180723 26.5595565,7.17067613 25.517591,6.16757877 C25.4348716,6.08784922 25.2405308,5.90048479 24.7123226,6.14664976 C24.458683,6.3444787 24.268827,7.83492292 24.1008966,9.14946383 C23.7859649,11.6170933 23.3544287,14.9976261 21.9412225,18.5764861 C21.8634862,18.7728201 21.6761218,18.8919162 21.4772962,18.8919162" id="Fill-20" fill="#02A6B8"></path>
                <path d="M21.4775454,29.0157747 C21.3001471,29.0157747 21.1242438,28.9559776 20.9827239,28.8468477 C20.9687712,28.8363832 19.6661897,27.8332859 18.0576461,26.9144028 C15.6891803,25.5609938 12.9699044,23.5592838 12.9579102,20.0576618 C12.9534602,18.7615584 13.3830031,17.6423548 14.200231,16.8221371 C15.0269267,15.9929498 16.2303446,15.5175624 17.5025291,15.5175624 C18.3581268,15.5175624 19.1927955,15.7278491 19.9158429,16.1255002 C20.9722594,16.7070276 21.5861769,17.5501675 21.9150613,18.1556138 C22.0471133,18.397294 21.9574176,18.7002663 21.7157374,18.83182 C21.4735589,18.9618788 21.1710849,18.873678 21.0400295,18.6314995 C20.7744304,18.1436544 20.2806055,17.4634617 19.4354723,16.9985387 C18.8594264,16.6816138 18.1906948,16.5141817 17.5025291,16.5141817 C16.4934521,16.5141817 15.547162,16.8829309 14.9058375,17.5257504 C14.2799605,18.1541189 13.9510761,19.0286523 13.9545643,20.0551703 C13.9645305,23.0455266 16.4167124,24.8294752 18.5519693,26.0493373 C20.0538746,26.9074265 21.2971573,27.8342825 21.5473087,28.0241385 C21.7894872,28.0580235 21.975855,28.2658187 21.975855,28.517465 C21.975855,28.7930303 21.7526123,29.0157747 21.4775454,29.0157747" id="Fill-22" fill="#02A6B8"></path>
                <path d="M21.4775454,29.0157747 C21.2024784,29.0157747 20.9792357,28.7930303 20.9792357,28.517465 C20.9792357,28.2658187 21.1656035,28.0580235 21.4072837,28.0241385 C21.6549436,27.8362757 22.8987245,26.9084231 24.4031214,26.0493373 C26.5378801,24.8294752 28.9905602,23.0455266 29.0005264,20.0551703 C29.0040146,19.028154 28.6746319,18.1536206 28.048755,17.5257504 C27.4079287,16.8829309 26.4616387,16.5141817 25.4525616,16.5141817 C24.7643959,16.5141817 24.0956644,16.6816138 23.5196184,16.9985387 C22.6739869,17.4634617 22.1806603,18.1436544 21.9155596,18.6314995 C21.7845041,18.8731797 21.4810335,18.9618788 21.2398517,18.83182 C20.9981715,18.7002663 20.9079774,18.397294 21.0395312,18.1556138 C21.3684156,17.5506659 21.9818348,16.7070276 23.0392479,16.1255002 C23.7622952,15.7278491 24.5969639,15.5175624 25.4525616,15.5175624 C26.7242479,15.5175624 27.928164,15.9929498 28.7548598,16.8221371 C29.5715893,17.6423548 30.0011323,18.76106 29.9971733,20.0576618 C29.9851863,23.5592838 27.2654122,25.5609938 24.8974446,26.9144028 C23.288901,27.8337842 21.9858212,28.8363832 21.9728652,28.8463494 C21.8313452,28.9554792 21.6554419,29.0157747 21.4775454,29.0157747" id="Fill-24" fill="#02A6B8"></path>
            </g>
        </g>
    </g>
</svg>