<?xml version="1.0" encoding="UTF-8"?>
<svg width="84px" height="82px" viewBox="0 0 84 82" version="1.1" xmlns="http://www.w3.org/2000/svg" xmlns:xlink="http://www.w3.org/1999/xlink">
    <!-- Generator: Sketch 55.2 (78181) - https://sketchapp.com -->
    <title>face</title>
    <desc>Created with Sketch.</desc>
    <g id="Page-1" stroke="none" stroke-width="1" fill="none" fill-rule="evenodd">
        <g id="Artboard" transform="translate(-204.000000, -212.000000)" fill="#00A6B8" fill-rule="nonzero">
            <g id="face" transform="translate(204.000000, 212.000000)">
                <path d="M52.83,81.5406896 C52.3679962,81.557082 51.9545106,81.2552375 51.83,80.81 C51.6825095,80.2800015 51.9908207,79.7304033 52.52,79.58 C54.8390174,78.9224374 57.0946505,78.0590051 59.26,77 C75.7190125,68.814249 84.3734111,50.3718159 80.1511968,32.4810776 C75.9289825,14.5903392 59.9421724,1.96323141 41.56,2 C37.75,2 31.81,2.75 27.56,4.85 C21.39,8 20.74,12.4 20.71,12.59 C20.642219,13.1316075 20.1526551,13.5188081 19.61,13.46 C19.38,13.46 13.81,12.97 8,20.29 C2.78,26.86 2,36.44 2,41.56 C2.076204,59.0080122 13.5025341,74.3741765 30.19,79.47 C30.6747839,79.6592948 30.933338,80.1887751 30.7845121,80.6874722 C30.6356863,81.1861693 30.1292384,81.4873506 29.62,81.38 C12.0867117,76.0326558 0.0793468291,59.8904117 0,41.56 C0,36.18 0.84,26.1 6.44,19 C11.64,12.45 16.86,11.51 18.93,11.42 C19.43,9.69 21.13,5.81 26.71,3.02 C31.22,0.8 37.34,0 41.56,0 C62.2607271,0.0055457533 79.8029652,15.2411412 82.7076033,35.7370728 C85.6122415,56.2330044 72.9940533,75.7428688 53.11,81.5 C53.0184637,81.5237999 52.9245388,81.5372178 52.83,81.5406896 L52.83,81.5406896 Z" id="Path"></path>
                <path d="M66.82,37.1 C66.4077072,37.0987821 66.0384243,36.8446519 65.89,36.46 C60.38,22.13 48.07,15.73 33,19.33 C32.6420093,19.4453202 32.2495879,19.350021 31.9843626,19.0833534 C31.7191373,18.8166857 31.6259678,18.4237533 31.7432277,18.0663933 C31.8604877,17.7090332 32.1683441,17.4476888 32.54,17.39 C48.7,13.53 61.88,20.39 67.78,35.74 C67.9545681,36.2532017 67.6884519,36.8120459 67.18,37 C67.0681031,37.0576062 66.9455767,37.0916413 66.82,37.1 L66.82,37.1 Z" id="Path"></path>
                <path d="M59.1,71.280017 C58.7489527,71.2820443 58.4225417,71.0998614 58.24,70.8 C57.9548988,70.330231 58.102267,69.7184294 58.57,69.43 C71.126395,61.8036056 77.0703931,46.7507466 73.1120285,32.6030862 C69.153664,18.4554257 56.2609815,8.67286903 41.57,8.67 C38.42,8.67 33.5,9.29 30.03,11.03 C29.5357052,11.2785281 28.9335282,11.0792948 28.685,10.585 C28.4364719,10.0907051 28.6357052,9.48852815 29.13,9.24 C33.0445844,7.51275557 37.2814209,6.63675639 41.56,6.67 C57.1412473,6.68954845 70.8059327,17.0751802 74.9959672,32.0824871 C79.1860017,47.089794 72.8775963,63.0519052 59.56,71.14 C59.4203352,71.2233846 59.2624376,71.2714404 59.1,71.280017 Z" id="Path"></path>
                <path d="M24.7,71.6800239 C24.5248236,71.6812098 24.3524029,71.6363804 24.2,71.55 C13.451845,65.3232124 6.82479372,53.8515581 6.8,41.43 C6.8,36.93 7.51,28.49 12.2,22.58 C12.545178,22.1464565 13.1764565,22.074822 13.61,22.42 C14.0435435,22.765178 14.115178,23.3964565 13.77,23.83 C9.45,29.26 8.77,37.19 8.77,41.43 C8.80231046,53.1433795 15.0599659,63.9562119 25.2,69.82 C25.6761364,70.0946085 25.8413883,70.7020208 25.57,71.18 C25.390659,71.4906342 25.0586848,71.681424 24.7,71.6800239 L24.7,71.6800239 Z" id="Path"></path>
                <path d="M42.49,77.53 C33.8,77.53 23.03,66.93 20.06,49.19 C19.0739443,42.7298679 18.7389312,36.1870612 19.06,29.66 C19.06,29.1077153 19.5077153,28.66 20.06,28.66 C20.6122847,28.66 21.06,29.1077153 21.06,29.66 C20.7540961,36.05406 21.0890999,42.4626836 22.06,48.79 C25.14,67.18 35.88,75.46 42.52,75.46 C49.16,75.46 59.87,67.25 63,48.86 C63.29,47.13 63.53,45.3 63.71,43.44 C63.7628021,42.8948692 64.2442841,42.4936342 64.79,42.54 C65.0556415,42.5628236 65.3011698,42.6907831 65.4720405,42.8954525 C65.6429112,43.1001218 65.7249745,43.3645521 65.7,43.63 C65.52,45.54 65.27,47.41 64.98,49.19 C62,66.93 51.19,77.53 42.49,77.53 Z" id="Path"></path>
                <path d="M64.65,44.53 C64.0977153,44.53 63.65,44.0822847 63.65,43.53 C63.65,43.29 63.37,37.53 55.51,34.63 C52.51,33.51 48.51,32.48 44.27,31.38 C38,29.79 31.59,28.12 27.77,26 C21,22.36 21.36,17 21.38,16.75 C21.41866,16.1977153 21.8977153,15.7813401 22.45,15.8200001 C23.0022847,15.85866 23.4186599,16.3377153 23.38,16.89 C23.38,17.08 23.19,21.25 28.73,24.28 C32.35,26.28 38.67,27.88 44.78,29.47 C49.06,30.58 53.1,31.62 56.22,32.77 C65.4,36.15 65.65,43.21 65.66,43.51 C65.66,44.0622847 65.2122847,44.51 64.66,44.51 L64.65,44.53 Z" id="Path"></path>
                <path d="M22.33,56.38 C22.1742591,56.3821666 22.0201653,56.3479235 21.88,56.28 C20.2725942,55.4359748 18.8189081,54.3271167 17.58,53 C15.6023976,50.591713 14.6474432,47.5042665 14.92,44.4 C14.9727359,43.4888219 15.4456626,42.6538108 16.2,42.14 C17.84,41.14 20.2,42.91 20.86,43.47 C21.2857366,43.8164209 21.3526824,44.4412485 21.01,44.87 C20.8404518,45.0745071 20.5964992,45.2031478 20.3319715,45.2275369 C20.0674438,45.251926 19.8040826,45.1700589 19.6,45 C18.9468121,44.370946 18.1091476,43.9678857 17.21,43.85 C17.16,43.85 16.99,44.1 16.9,44.69 C16.7114573,47.2138643 17.4869149,49.7153404 19.07,51.69 C20.1437892,52.8269404 21.397165,53.7796411 22.78,54.51 C23.1901627,54.7201126 23.4036218,55.1833224 23.29688,55.6316381 C23.1901381,56.0799538 22.7908398,56.3972689 22.33,56.4 L22.33,56.38 Z" id="Path"></path>
                <path d="M62.51,56.38 C62.0491602,56.3772689 61.6498619,56.0599538 61.54312,55.6116381 C61.4363782,55.1633224 61.6498373,54.7001126 62.06,54.49 C63.442835,53.7596411 64.6962108,52.8069404 65.77,51.67 C67.3530851,49.6953404 68.1285427,47.1938643 67.94,44.67 C67.85,44.08 67.68,43.86 67.62,43.83 C66.7230058,43.9588412 65.8898487,44.3684184 65.24,45 C65.0346605,45.1689076 64.7705087,45.2490865 64.5059261,45.2228159 C64.2413435,45.1965453 63.9981158,45.0659883 63.83,44.86 C63.4986543,44.427691 63.5742344,43.8097127 64,43.47 C64.67,42.91 67,41.18 68.66,42.14 C69.4075609,42.6600186 69.8784552,43.4914413 69.94,44.4 C70.208573,47.5088071 69.2421957,50.5983404 67.25,53 C66.0281775,54.3248947 64.5912889,55.4338346 63,56.28 C62.8477724,56.354296 62.6791667,56.3887053 62.51,56.38 L62.51,56.38 Z" id="Path"></path>
                <path d="M35.73,44.3600271 C35.4466287,44.3489378 35.1812799,44.2180808 35,44 C33.6453394,42.561335 31.7457119,41.7622566 29.77,41.8 C27.9453258,41.6742702 26.1369386,42.2142994 24.68,43.32 C24.2795936,43.7010765 23.6460765,43.6854064 23.265,43.285 C22.8839236,42.8845935 22.8995936,42.2510765 23.3,41.87 C25.1213503,40.3941263 27.4302092,39.6554342 29.77,39.8 C32.326831,39.7538435 34.7807665,40.8060502 36.51,42.69 C36.8714773,43.1070647 36.8267211,43.7381266 36.41,44.1 C36.2240522,44.2690269 35.9812832,44.3618503 35.73,44.3600271 Z" id="Path"></path>
                <path d="M33.7,48.9200084 C33.3176049,48.9207653 32.9682534,48.703391 32.8,48.36 C32.0681834,46.867974 30.5518346,45.9217103 28.89,45.92 C27.6491372,45.9199827 26.4656831,46.4427355 25.63,47.36 C25.3870594,47.6243765 25.0215298,47.7390633 24.6711027,47.6608588 C24.3206756,47.5826543 24.0385892,47.3234398 23.9311027,46.9808588 C23.8236162,46.6382778 23.9070594,46.2643765 24.15,46 C25.5677982,44.4271116 27.6754449,43.6630344 29.7718186,43.9619432 C31.8681924,44.260852 33.6783007,45.5835373 34.6,47.49 C34.8373532,47.9844641 34.6321264,48.5778371 34.14,48.82 C34.0028673,48.8864197 33.8523698,48.9206236 33.7,48.9200084 L33.7,48.9200084 Z" id="Path"></path>
                <circle id="Oval" cx="29.2" cy="47.59" r="2.28"></circle>
                <path d="M47.82,44.36 C47.5769276,44.3596502 47.3423042,44.2707777 47.16,44.11 C46.7432789,43.7481266 46.6985227,43.1170647 47.06,42.7 C48.7892335,40.8160502 51.243169,39.7638435 53.8,39.81 C56.1397908,39.6654342 58.4486497,40.4041263 60.27,41.88 C60.6704064,42.2610765 60.6860764,42.8945935 60.305,43.295 C59.9239235,43.6954064 59.2904064,43.7110764 58.89,43.33 C57.4330614,42.2242994 55.6246742,41.6842702 53.8,41.81 C51.8258136,41.7696722 49.9264192,42.5650208 48.57,44 C48.3841494,44.2232309 48.1104196,44.3546212 47.82,44.36 Z" id="Path"></path>
                <path d="M49.84,48.9200084 C49.6876302,48.9206236 49.5371327,48.8864197 49.4,48.82 C48.9078736,48.5778371 48.7026468,47.9844641 48.94,47.49 C49.8642744,45.5834441 51.6760238,44.2612382 53.7736314,43.9624394 C55.8712391,43.6636406 57.9801235,44.4273623 59.4,46 C59.7329081,46.4148443 59.682811,47.0176999 59.2859953,47.3719045 C58.8891796,47.7261091 58.2845264,47.7076951 57.91,47.33 C57.0743169,46.4127355 55.8908628,45.8899827 54.65,45.89 C52.9881654,45.8917103 51.4718166,46.837974 50.74,48.33 C50.5804169,48.6850848 50.2292681,48.9152823 49.84,48.9200084 L49.84,48.9200084 Z" id="Path"></path>
                <circle id="Oval" cx="54.34" cy="47.59" r="2.28"></circle>
                <path d="M42.53,65.49 C39.8815549,65.4411561 37.2646833,64.9055788 34.81,63.91 C34.477743,63.7778117 34.2412465,63.4784077 34.1895964,63.1245706 C34.1379463,62.7707335 34.2789895,62.4162195 34.5595964,62.1945706 C34.8402033,61.9729217 35.217743,61.9178117 35.55,62.05 C37.7735488,62.9609105 40.1474458,63.449255 42.55,63.49 C44.8282104,63.4340394 47.0803147,62.991058 49.21,62.18 C49.548669,62.0465541 49.933101,62.1076781 50.2136798,62.3395835 C50.4942586,62.5714888 50.6266603,62.9375405 50.5593559,63.295276 C50.4920514,63.6530114 50.235673,63.9459179 49.89,64.06 C47.5365617,64.9542847 45.0470837,65.4379741 42.53,65.49 Z" id="Path"></path>
            </g>
        </g>
    </g>
</svg>